<svg width="37" height="36" viewBox="0 0 37 36" fill="none" xmlns="http://www.w3.org/2000/svg">
<g filter="url(#filter0_d_10_170)">
<rect x="5.99915" y="2" width="25" height="25" rx="6" fill="#4FD1C5"/>
</g>
<path d="M16.5469 19.1875C16.9783 19.1875 17.3281 18.8377 17.3281 18.4062C17.3281 17.9747 16.9783 17.625 16.5469 17.625C16.1154 17.625 15.7656 17.9747 15.7656 18.4062C15.7656 18.8377 16.1154 19.1875 16.5469 19.1875Z" fill="white"/>
<path d="M22.0156 19.1875C22.4471 19.1875 22.7969 18.8377 22.7969 18.4062C22.7969 17.9747 22.4471 17.625 22.0156 17.625C21.5842 17.625 21.2344 17.9747 21.2344 18.4062C21.2344 18.8377 21.5842 19.1875 22.0156 19.1875Z" fill="white"/>
<path d="M23.4023 11.1989C23.3475 11.1317 23.2783 11.0777 23.1999 11.0406C23.1216 11.0035 23.0359 10.9844 22.9492 10.9845H15.5188L15.3691 10.1354C15.3532 10.0449 15.3059 9.96301 15.2355 9.90399C15.1651 9.84496 15.0762 9.81262 14.9844 9.81264H13.4219C13.3183 9.81264 13.2189 9.85379 13.1457 9.92705C13.0724 10.0003 13.0312 10.0997 13.0312 10.2033C13.0312 10.3069 13.0724 10.4062 13.1457 10.4795C13.2189 10.5527 13.3183 10.5939 13.4219 10.5939H14.6567L15.7715 16.9118C15.7874 17.0022 15.8348 17.0841 15.9051 17.1432C15.9755 17.2022 16.0644 17.2345 16.1562 17.2345H22.4062C22.5098 17.2345 22.6092 17.1934 22.6825 17.1201C22.7557 17.0468 22.7969 16.9475 22.7969 16.8439C22.7969 16.7403 22.7557 16.6409 22.6825 16.5677C22.6092 16.4944 22.5098 16.4533 22.4062 16.4533H16.4839L16.3462 15.672H22.2461C22.3816 15.6718 22.5128 15.6249 22.6176 15.539C22.7224 15.4532 22.7944 15.3338 22.8213 15.2011L23.5244 11.6854C23.5414 11.6004 23.5392 11.5126 23.5181 11.4284C23.497 11.3443 23.4574 11.2659 23.4023 11.1989Z" fill="white"/>
<defs>
<filter id="filter0_d_10_170" x="0.499145" y="-2.38419e-07" width="36" height="36" filterUnits="userSpaceOnUse" color-interpolation-filters="sRGB">
<feFlood flood-opacity="0" result="BackgroundImageFix"/>
<feColorMatrix in="SourceAlpha" type="matrix" values="0 0 0 0 0 0 0 0 0 0 0 0 0 0 0 0 0 0 127 0" result="hardAlpha"/>
<feOffset dy="3.5"/>
<feGaussianBlur stdDeviation="2.75"/>
<feColorMatrix type="matrix" values="0 0 0 0 0 0 0 0 0 0 0 0 0 0 0 0 0 0 0.02 0"/>
<feBlend mode="normal" in2="BackgroundImageFix" result="effect1_dropShadow_10_170"/>
<feBlend mode="normal" in="SourceGraphic" in2="effect1_dropShadow_10_170" result="shape"/>
</filter>
</defs>
</svg>
